<?xml version="1.0" encoding="UTF-8"?>
<svg xmlns="http://www.w3.org/2000/svg" xmlns:xlink="http://www.w3.org/1999/xlink" width="365pt" height="368.78pt" viewBox="0 0 365 368.78" version="1.1">
<defs>
<clipPath id="clip1">
  <path d="M 177 244 L 260 244 L 260 368.78125 L 177 368.78125 Z M 177 244 "/>
</clipPath>
</defs>
<g id="surface1">
<path style=" stroke:none;fill-rule:nonzero;fill:rgb(94.499207%,34.899902%,31.799316%);fill-opacity:1;" d="M 49.523438 289.585938 C 68.488281 287.820313 88.472656 277.699219 95.003906 260.554688 C 105.605469 232.714844 78.457031 207.175781 54.917969 198.96875 C 24.59375 188.394531 5.128906 202.726563 0.621094 233.796875 C -4.035156 265.882813 18.753906 361.574219 28.109375 364.414063 C 31.769531 365.527344 34.746094 364.910156 37.117188 363.308594 C 43.152344 358.699219 48.96875 357.410156 46.203125 344.375 C 46.15625 344.15625 42.449219 314.519531 39.761719 302.8125 C 38.261719 296.285156 42.941406 290.199219 49.523438 289.585938 Z M 28.683594 250.027344 C 25.835938 245.308594 26.136719 237.886719 28.917969 231.804688 C 30.417969 228.53125 34.628906 225.636719 38.175781 225.3125 L 38.230469 225.308594 C 40.933594 225.074219 47.945313 227.394531 49.484375 232.457031 C 51.023438 237.519531 52.582031 248.628906 43.09375 252.957031 C 37.402344 255.550781 30.5 253.027344 28.683594 250.027344 "/>
<path style=" stroke:none;fill-rule:nonzero;fill:rgb(94.499207%,34.899902%,31.799316%);fill-opacity:1;" d="M 330.335938 311.785156 C 326.980469 311.027344 323.382813 310.976563 320.152344 309.957031 C 304.511719 305.023438 300.4375 300.589844 308.023438 287.46875 C 312.402344 279.898438 316.957031 272.402344 321.195313 264.769531 C 326.789063 254.6875 325.960938 245 319.460938 241.378906 C 313.046875 237.808594 303.738281 240.8125 295.417969 249.289063 C 292.285156 252.480469 289.257813 255.746094 285.6875 259.578125 C 283.683594 261.730469 279.84375 261.324219 278.492188 258.8125 C 277.980469 257.859375 277.546875 257.035156 277.128906 256.207031 C 273.121094 248.222656 269.777344 239.886719 264.820313 232.402344 C 263.023438 229.683594 257.023438 228.5 253.925781 229.296875 C 250.703125 230.128906 247.324219 233.476563 246.503906 236.960938 C 245.773438 240.050781 248.054688 243.816406 249.414063 247.148438 C 251.480469 252.210938 253.859375 258.578125 255.425781 263.6875 C 256.992188 268.792969 259.910156 289.257813 261.023438 304.558594 C 261.261719 307.875 261.203125 311.699219 262 315.191406 C 263.402344 321.347656 265.667969 327.355469 266.832031 333.535156 C 267.882813 339.109375 267.824219 344.84375 268.464844 350.488281 C 269.738281 361.722656 276.679688 363.375 291.542969 363.902344 C 298.953125 364.164063 303.09375 358.484375 303.371094 349.382813 C 303.710938 338.441406 305.878906 336.820313 318.140625 338.4375 C 320.140625 338.703125 322.105469 339.164063 324.101563 339.460938 C 333.660156 340.894531 340.601563 337.078125 342.539063 329.347656 C 344.660156 320.886719 339.898438 313.945313 330.335938 311.785156 "/>
<g clip-path="url(#clip1)" clip-rule="nonzero">
<path style=" stroke:none;fill-rule:nonzero;fill:rgb(94.499207%,34.899902%,31.799316%);fill-opacity:1;" d="M 253.214844 329.9375 C 243.34375 322.792969 233.300781 315.835938 222.222656 308.070313 C 220.003906 306.519531 219.957031 303.371094 222.136719 301.765625 C 226.90625 298.242188 231.191406 295.113281 235.347656 291.855469 C 250.074219 280.308594 252.726563 262.789063 241.34375 252.996094 C 229.871094 243.125 201.464844 240.855469 188.464844 249.339844 C 185.804688 251.074219 184 255.511719 183.816406 258.152344 C 182.726563 273.765625 179.066406 290.488281 178.285156 296.039063 C 177.558594 301.210938 178.285156 307.652344 178.761719 311.089844 C 179.539063 316.742188 180.582031 321.765625 180.742188 327.410156 C 181.007813 336.917969 179.273438 346.539063 180.3125 355.941406 C 180.777344 360.148438 184.980469 366.0625 189.121094 367.496094 C 200.410156 371.40625 208.945313 366.105469 211.3125 355.292969 C 212.085938 351.757813 212.644531 348.183594 213.253906 344.265625 C 213.714844 341.273438 217.441406 339.847656 219.972656 341.695313 C 221.859375 343.070313 223.582031 344.316406 225.332031 345.53125 C 228.75 347.90625 232.257813 350.179688 235.726563 352.492188 C 242.019531 356.6875 248.050781 356.175781 253.789063 351.570313 C 261.050781 345.738281 260.914063 335.511719 253.214844 329.9375 Z M 216.3125 274.761719 C 213.824219 274.898438 211.871094 272.15625 212.054688 268.855469 C 212.121094 267.664063 212.78125 265.433594 214.191406 264.25 C 216.660156 262.171875 220.148438 262.316406 222.007813 264.878906 C 223.152344 266.46875 223.453125 268.992188 223.367188 270.136719 C 223.171875 272.769531 219.609375 274.722656 216.3125 274.761719 "/>
</g>
<path style=" stroke:none;fill-rule:nonzero;fill:rgb(94.499207%,34.899902%,31.799316%);fill-opacity:1;" d="M 160.144531 236.339844 C 152.070313 236.382813 145.769531 243.800781 144.855469 254.390625 C 144.746094 255.671875 144.804688 256.96875 144.824219 258.257813 C 144.898438 263.664063 144.984375 269.070313 145.066406 274.476563 C 145.179688 278.417969 144.386719 296.566406 142.484375 307.472656 C 142.113281 309.59375 138.476563 312.972656 136.707031 312.804688 C 133.976563 312.550781 130.25 310.183594 129.285156 307.914063 C 127.488281 303.695313 127.054688 298.925781 126.621094 294.339844 C 125.53125 282.808594 125.199219 271.199219 123.527344 259.742188 C 123.136719 257.074219 118.875 253.320313 115.90625 252.929688 C 112.808594 252.515625 108.226563 254.886719 105.941406 257.285156 C 103.757813 259.574219 103.054688 263.429688 102.820313 266.65625 C 102.132813 276.15625 101.480469 285.703125 101.800781 295.203125 C 102.097656 303.910156 102.640625 312.804688 104.921875 321.207031 C 108.738281 335.257813 121.859375 345.167969 134.929688 345.566406 C 147.519531 345.949219 161.183594 337.984375 164.675781 323.402344 C 170.136719 300.613281 173.125 277.269531 175.464844 254.03125 C 176.511719 243.652344 168.253906 236.300781 160.144531 236.339844 "/>
<path style=" stroke:none;fill-rule:nonzero;fill:rgb(94.499207%,34.899902%,31.799316%);fill-opacity:1;" d="M 104.128906 343.542969 C 95.722656 342.175781 91.8125 337.871094 90.519531 331.46875 C 89.046875 324.167969 88.984375 313.078125 89.101563 309.1875 C 89.007813 303.011719 89.683594 296.710938 88.476563 290.71875 C 87.914063 287.945313 83.699219 285.699219 80.941406 285.527344 C 77.996094 285.34375 74.015625 286.773438 71.988281 289.414063 C 70.222656 291.714844 70.410156 295.328125 70.132813 298.386719 C 69.34375 307.125 68.46875 315.871094 68.175781 324.625 C 67.953125 331.285156 68.0625 338.015625 68.925781 344.613281 C 70.132813 353.847656 76.667969 359.695313 86.601563 361.492188 C 93.59375 362.757813 101 362.9375 108.160156 362.574219 C 114.894531 362.230469 118.097656 357.417969 114.820313 352.105469 C 112.582031 348.480469 108.226563 344.210938 104.128906 343.542969 "/>
<path style=" stroke:none;fill-rule:nonzero;fill:rgb(94.499207%,34.899902%,31.799316%);fill-opacity:1;" d="M 360.78125 342.761719 C 359.449219 341.886719 358.164063 341.285156 357.128906 341.210938 C 351.464844 340.8125 347.628906 344.816406 348.113281 350.265625 C 348.585938 355.492188 352.429688 359.460938 358.234375 358.300781 C 358.730469 358.203125 359.21875 358.054688 359.691406 357.863281 C 366.425781 355.171875 366.710938 346.648438 360.78125 342.761719 "/>
<path style=" stroke:none;fill-rule:nonzero;fill:rgb(41.19873%,23.098755%,8.599854%);fill-opacity:1;" d="M 97.128906 45.082031 L 97.167969 45.035156 L 97.175781 45.023438 Z M 97.128906 45.082031 "/>
<path style=" stroke:none;fill-rule:nonzero;fill:rgb(41.19873%,23.098755%,8.599854%);fill-opacity:1;" d="M 306.738281 66.320313 C 305.042969 64.492188 300.226563 60.589844 291.820313 63.714844 C 290.546875 64.1875 289.496094 64.5625 288.589844 64.835938 C 271.101563 27.492188 234.089844 2.285156 193.007813 0.160156 C 157.152344 -1.722656 123.558594 13.046875 100.6875 40.632813 C 100.503906 40.824219 100.304688 41.035156 100.1875 41.179688 C 99.25 42.320313 98.347656 43.484375 97.371094 44.773438 L 97.167969 45.035156 C 97.054688 45.175781 96.933594 45.355469 96.8125 45.535156 C 95.949219 46.703125 95.105469 47.890625 94.285156 49.089844 C 91.34375 46.660156 87.816406 45.023438 83.957031 44.34375 C 78.085938 43.320313 72.171875 44.632813 67.296875 48.046875 C 61.652344 52.003906 58.222656 58.359375 57.847656 65.082031 C 57.421875 65.339844 57 65.613281 56.585938 65.902344 C 51.71875 69.316406 48.464844 74.429688 47.429688 80.300781 C 46.402344 86.171875 47.710938 92.089844 51.125 96.960938 C 54.546875 101.839844 59.660156 105.09375 65.53125 106.125 C 68.742188 106.6875 71.960938 106.546875 75.027344 105.746094 C 74.96875 106.761719 74.925781 107.789063 74.894531 108.828125 C 74.875 109.015625 74.867188 109.203125 74.867188 109.375 L 74.867188 109.789063 C 74.839844 111.253906 74.84375 112.734375 74.867188 114.21875 L 74.90625 115.691406 C 74.953125 117.34375 75.042969 118.988281 75.164063 120.601563 L 75.371094 122.84375 C 75.449219 123.648438 75.535156 124.449219 75.625 125.230469 C 76.882813 136.007813 79.648438 146.421875 83.847656 156.257813 C 79.582031 160.390625 77.507813 166.269531 78.269531 172.292969 C 78.714844 175.839844 80.121094 179.15625 82.324219 181.867188 L 82.597656 182.214844 L 96.492188 199.304688 C 99.6875 203.242188 104.238281 205.699219 109.308594 206.222656 C 113.683594 206.671875 118.003906 205.625 121.632813 203.253906 C 140.59375 216.847656 163.613281 224.285156 186.988281 224.285156 C 187.945313 224.285156 188.902344 224.273438 189.867188 224.246094 C 210.398438 223.714844 230.183594 217.636719 247.375 206.613281 C 253.628906 210.804688 261.859375 210.929688 268.363281 206.660156 L 268.402344 206.636719 C 268.945313 206.277344 269.484375 205.886719 270.003906 205.464844 C 270.59375 204.984375 271.160156 204.46875 271.714844 203.886719 L 287.175781 187.605469 C 290.667969 183.925781 292.519531 179.101563 292.386719 174.019531 C 292.269531 169.4375 290.554688 165.148438 287.523438 161.796875 C 296.617188 143.421875 300.46875 122.953125 298.679688 102.289063 C 298.546875 100.730469 298.371094 99.148438 298.164063 97.558594 C 302.585938 93.023438 305.699219 88.828125 307.4375 85.066406 C 312.019531 75.128906 309.585938 69.386719 306.738281 66.320313 "/>
<path style=" stroke:none;fill-rule:nonzero;fill:rgb(100%,100%,100%);fill-opacity:1;" d="M 261.257813 192.269531 C 260.257813 193.335938 260.308594 195.011719 261.378906 196.011719 L 263.503906 198.011719 C 263.875 197.730469 264.257813 197.46875 264.59375 197.117188 L 266.820313 194.773438 L 267.28125 194.285156 L 265 192.148438 C 263.933594 191.148438 262.257813 191.199219 261.257813 192.269531 "/>
<path style=" stroke:none;fill-rule:nonzero;fill:rgb(100%,100%,100%);fill-opacity:1;" d="M 95.054688 176.265625 C 96.21875 175.378906 96.445313 173.71875 95.558594 172.554688 C 94.671875 171.390625 93.011719 171.164063 91.84375 172.050781 L 89.523438 173.820313 L 89.011719 174.210938 C 88.769531 173.742188 88.574219 173.261719 88.410156 172.769531 C 88.742188 173.804688 89.238281 174.804688 89.964844 175.695313 L 90.226563 176.019531 L 92.199219 178.445313 L 92.570313 178.160156 L 95.054688 176.265625 "/>
<path style=" stroke:none;fill-rule:nonzero;fill:rgb(100%,100%,100%);fill-opacity:1;" d="M 103.054688 139.839844 C 117.65625 142.761719 133.726563 123.980469 138.949219 97.894531 C 144.171875 71.804688 136.566406 48.285156 121.964844 45.363281 C 118.949219 44.757813 115.875 45.113281 112.84375 46.246094 C 112.648438 46.335938 112.453125 46.40625 112.253906 46.484375 C 109.777344 47.492188 107.335938 49.003906 104.988281 50.996094 C 94.925781 64.441406 88.015625 80.539063 85.589844 98.363281 C 85.082031 102.109375 84.792969 105.828125 84.699219 109.519531 C 86.046875 125.601563 92.820313 137.792969 103.054688 139.839844 Z M 89.679688 86.894531 C 92.144531 74.585938 97.734375 64.410156 104.277344 58.835938 C 108.460938 55.273438 113.03125 53.578125 117.433594 54.460938 C 128.722656 56.71875 134.601563 74.902344 130.5625 95.074219 C 126.527344 115.25 114.101563 129.773438 102.8125 127.511719 C 94.886719 125.925781 89.648438 116.484375 88.609375 104.023438 C 88.171875 98.734375 88.476563 92.90625 89.679688 86.894531 "/>
<path style=" stroke:none;fill-rule:nonzero;fill:rgb(96.899414%,59.999084%,46.299744%);fill-opacity:1;" d="M 295.246094 72.921875 C 290.417969 74.71875 286.707031 75.871094 282.210938 74.851563 C 267.847656 38.433594 233.082031 12.070313 192.496094 9.976563 C 158.203125 8.203125 127.605469 23.246094 107.828125 47.402344 C 106.925781 48.507813 106.027344 49.613281 105.171875 50.75 L 104.953125 51.023438 L 104.988281 50.996094 C 107.335938 49.003906 109.777344 47.492188 112.253906 46.484375 C 112.453125 46.40625 112.648438 46.335938 112.84375 46.246094 C 115.875 45.113281 118.949219 44.757813 121.964844 45.363281 C 136.566406 48.285156 144.171875 71.804688 138.949219 97.894531 C 133.726563 123.980469 117.65625 142.761719 103.054688 139.839844 C 92.820313 137.792969 86.046875 125.601563 84.699219 109.519531 L 84.691406 109.464844 C 84.6875 109.640625 84.695313 109.816406 84.691406 109.992188 C 84.664063 111.335938 84.667969 112.6875 84.691406 114.042969 C 84.699219 114.292969 84.6875 114.539063 84.691406 114.785156 C 84.699219 114.988281 84.71875 115.183594 84.722656 115.382813 C 84.773438 116.890625 84.851563 118.390625 84.960938 119.882813 C 85.011719 120.558594 85.085938 121.234375 85.152344 121.910156 C 85.21875 122.640625 85.300781 123.367188 85.386719 124.09375 C 86.742188 135.71875 90.003906 146.738281 94.898438 156.8125 C 95.515625 158.078125 95.199219 159.59375 94.105469 160.484375 L 91.300781 162.765625 C 88.75 164.839844 87.632813 168.015625 88.015625 171.066406 C 88.082031 171.585938 88.199219 172.097656 88.351563 172.601563 L 88.410156 172.769531 C 88.574219 173.261719 88.769531 173.742188 89.011719 174.210938 L 89.523438 173.820313 L 91.84375 172.050781 C 93.011719 171.164063 94.671875 171.390625 95.558594 172.554688 C 96.445313 173.71875 96.21875 175.378906 95.054688 176.265625 L 92.570313 178.160156 L 92.199219 178.445313 L 104.121094 193.113281 C 107.308594 197.035156 113.128906 197.636719 117.050781 194.449219 L 119.664063 192.324219 C 120.769531 191.425781 122.339844 191.441406 123.457031 192.324219 C 141.589844 206.710938 164.664063 215.070313 189.613281 214.425781 C 210.691406 213.882813 230.101563 206.976563 246.09375 195.625 C 247.28125 194.78125 248.882813 194.875 249.9375 195.875 L 251.597656 197.453125 C 254.742188 200.441406 259.492188 200.734375 262.976563 198.441406 C 263.164063 198.320313 263.359375 198.183594 263.539063 198.046875 L 263.503906 198.011719 L 261.378906 196.011719 C 260.308594 195.011719 260.257813 193.335938 261.257813 192.269531 C 262.257813 191.199219 263.933594 191.148438 265 192.148438 L 267.28125 194.285156 L 280.046875 180.84375 C 283.527344 177.175781 283.378906 171.328125 279.710938 167.847656 L 277.050781 165.316406 C 276.046875 164.363281 275.835938 162.867188 276.507813 161.65625 C 286.007813 144.511719 290.734375 124.398438 288.890625 103.140625 C 288.625 100.070313 288.214844 97.035156 287.679688 94.046875 C 290.734375 91.230469 296.324219 85.695313 298.515625 80.953125 C 300.863281 75.859375 301.449219 70.613281 295.246094 72.921875 "/>
<path style=" stroke:none;fill-rule:nonzero;fill:rgb(94.499207%,34.899902%,31.799316%);fill-opacity:1;" d="M 102.8125 127.511719 C 114.101563 129.773438 126.527344 115.25 130.5625 95.074219 C 134.601563 74.902344 128.722656 56.71875 117.433594 54.460938 C 113.03125 53.578125 108.460938 55.273438 104.277344 58.835938 C 97.734375 64.410156 92.144531 74.585938 89.679688 86.894531 C 88.476563 92.90625 88.171875 98.734375 88.609375 104.023438 C 89.648438 116.484375 94.886719 125.925781 102.8125 127.511719 Z M 91.730469 98.875 C 91.445313 95.425781 91.644531 91.632813 92.429688 87.714844 C 94.03125 79.695313 97.675781 73.066406 101.9375 69.4375 C 104.664063 67.117188 107.640625 66.011719 110.507813 66.585938 C 117.859375 68.058594 121.691406 79.902344 119.0625 93.046875 C 116.429688 106.1875 108.335938 115.644531 100.980469 114.175781 C 95.820313 113.140625 92.40625 106.988281 91.730469 98.875 "/>
<path style=" stroke:none;fill-rule:nonzero;fill:rgb(99.198914%,85.499573%,77.999878%);fill-opacity:1;" d="M 119.0625 93.046875 C 121.691406 79.902344 117.859375 68.058594 110.507813 66.585938 C 107.640625 66.011719 104.664063 67.117188 101.9375 69.4375 C 97.675781 73.066406 94.03125 79.695313 92.429688 87.714844 C 91.644531 91.632813 91.445313 95.425781 91.730469 98.875 C 92.40625 106.988281 95.820313 113.140625 100.980469 114.175781 C 108.335938 115.644531 116.429688 106.1875 119.0625 93.046875 "/>
<path style=" stroke:none;fill-rule:nonzero;fill:rgb(100%,100%,100%);fill-opacity:1;" d="M 105.253906 76.226563 C 100.378906 74.449219 98.203125 77.964844 92.421875 76.308594 C 91 75.898438 90.238281 74.972656 89.253906 74.765625 C 93.15625 70.546875 93.746094 64.046875 90.316406 59.148438 C 86.359375 53.507813 78.582031 52.136719 72.9375 56.09375 C 67.855469 59.652344 66.28125 66.304688 68.902344 71.71875 C 66.585938 71.804688 64.269531 72.515625 62.226563 73.945313 C 56.585938 77.898438 55.21875 85.679688 59.171875 91.320313 C 63.128906 96.960938 70.90625 98.332031 76.546875 94.375 C 78.34375 93.117188 79.652344 91.449219 80.546875 89.605469 C 84.070313 96.082031 90.722656 100.570313 97.488281 100.878906 C 102.824219 101.121094 106.316406 99.324219 109.035156 95.675781 C 112.542969 90.96875 109.890625 77.917969 105.253906 76.226563 "/>
</g>
</svg>
